<svg width="112" height="32" viewBox="0 0 112 32" fill="none" xmlns="http://www.w3.org/2000/svg">
<g filter="url(#filter0_d_404_504)">
<rect x="2" y="1" width="108" height="28" rx="10" fill="#F3F5F6"/>
<path d="M14.4267 11.716V10.6H21.5907V11.716H18.6387V19H17.3787V11.716H14.4267ZM22.645 19V10.6H28.837V11.704H23.905V14.224H27.145V15.304H23.905V17.896H28.885V19H22.645ZM33.7445 17.968C34.2245 17.968 34.6845 17.872 35.1245 17.68C35.5645 17.48 35.9365 17.2 36.2405 16.84L37.0685 17.68C36.6605 18.128 36.1565 18.484 35.5565 18.748C34.9645 19.004 34.3485 19.132 33.7085 19.132C33.0925 19.132 32.5125 19.02 31.9685 18.796C31.4325 18.572 30.9685 18.268 30.5765 17.884C30.1845 17.492 29.8725 17.032 29.6405 16.504C29.4165 15.968 29.3045 15.4 29.3045 14.8C29.3045 14.192 29.4165 13.624 29.6405 13.096C29.8725 12.568 30.1845 12.112 30.5765 11.728C30.9685 11.336 31.4325 11.028 31.9685 10.804C32.5125 10.58 33.0925 10.468 33.7085 10.468C34.3645 10.468 34.9925 10.6 35.5925 10.864C36.2005 11.12 36.7005 11.472 37.0925 11.92L36.2525 12.784C35.9325 12.416 35.5485 12.132 35.1005 11.932C34.6525 11.732 34.1885 11.632 33.7085 11.632C33.2685 11.632 32.8565 11.712 32.4725 11.872C32.0885 12.032 31.7565 12.256 31.4765 12.544C31.2045 12.824 30.9885 13.16 30.8285 13.552C30.6685 13.936 30.5885 14.352 30.5885 14.8C30.5885 15.248 30.6685 15.668 30.8285 16.06C30.9885 16.444 31.2085 16.776 31.4885 17.056C31.7685 17.336 32.1005 17.56 32.4845 17.728C32.8765 17.888 33.2965 17.968 33.7445 17.968ZM38.3012 19V10.6H39.5612V14.2H44.0252V10.6H45.2852V19H44.0252V15.34H39.5612V19H38.3012ZM46.9965 10.6H48.2325L52.9125 16.828V10.6H54.1005V19H52.9965L48.1845 12.568V19H46.9965V10.6ZM64.2088 14.8C64.2088 15.4 64.0928 15.968 63.8608 16.504C63.6368 17.032 63.3288 17.492 62.9368 17.884C62.5448 18.268 62.0808 18.572 61.5448 18.796C61.0088 19.02 60.4368 19.132 59.8288 19.132C59.2208 19.132 58.6488 19.02 58.1128 18.796C57.5768 18.572 57.1128 18.268 56.7208 17.884C56.3368 17.492 56.0288 17.032 55.7968 16.504C55.5728 15.968 55.4608 15.4 55.4608 14.8C55.4608 14.2 55.5728 13.636 55.7968 13.108C56.0288 12.572 56.3368 12.112 56.7208 11.728C57.1128 11.336 57.5768 11.028 58.1128 10.804C58.6488 10.58 59.2208 10.468 59.8288 10.468C60.4368 10.468 61.0088 10.58 61.5448 10.804C62.0808 11.028 62.5448 11.336 62.9368 11.728C63.3288 12.112 63.6368 12.572 63.8608 13.108C64.0928 13.636 64.2088 14.2 64.2088 14.8ZM62.9248 14.8C62.9248 14.352 62.8448 13.936 62.6848 13.552C62.5248 13.16 62.3048 12.824 62.0247 12.544C61.7528 12.256 61.4248 12.032 61.0408 11.872C60.6648 11.712 60.2608 11.632 59.8288 11.632C59.3968 11.632 58.9928 11.712 58.6168 11.872C58.2408 12.032 57.9128 12.256 57.6328 12.544C57.3608 12.824 57.1448 13.16 56.9848 13.552C56.8248 13.936 56.7448 14.352 56.7448 14.8C56.7448 15.248 56.8248 15.668 56.9848 16.06C57.1448 16.444 57.3608 16.776 57.6328 17.056C57.9128 17.336 58.2408 17.56 58.6168 17.728C58.9928 17.888 59.3968 17.968 59.8288 17.968C60.2608 17.968 60.6648 17.888 61.0408 17.728C61.4248 17.56 61.7528 17.336 62.0247 17.056C62.3048 16.776 62.5248 16.444 62.6848 16.06C62.8448 15.668 62.9248 15.248 62.9248 14.8ZM65.5473 19V10.6H66.8073V17.884H71.6433V19H65.5473ZM80.5798 14.8C80.5798 15.4 80.4638 15.968 80.2318 16.504C80.0078 17.032 79.6998 17.492 79.3078 17.884C78.9158 18.268 78.4518 18.572 77.9158 18.796C77.3798 19.02 76.8078 19.132 76.1998 19.132C75.5918 19.132 75.0198 19.02 74.4838 18.796C73.9478 18.572 73.4838 18.268 73.0918 17.884C72.7078 17.492 72.3998 17.032 72.1678 16.504C71.9438 15.968 71.8318 15.4 71.8318 14.8C71.8318 14.2 71.9438 13.636 72.1678 13.108C72.3998 12.572 72.7078 12.112 73.0918 11.728C73.4838 11.336 73.9478 11.028 74.4838 10.804C75.0198 10.58 75.5918 10.468 76.1998 10.468C76.8078 10.468 77.3798 10.58 77.9158 10.804C78.4518 11.028 78.9158 11.336 79.3078 11.728C79.6998 12.112 80.0078 12.572 80.2318 13.108C80.4638 13.636 80.5798 14.2 80.5798 14.8ZM79.2958 14.8C79.2958 14.352 79.2158 13.936 79.0558 13.552C78.8958 13.16 78.6758 12.824 78.3958 12.544C78.1238 12.256 77.7958 12.032 77.4118 11.872C77.0358 11.712 76.6318 11.632 76.1998 11.632C75.7678 11.632 75.3638 11.712 74.9878 11.872C74.6118 12.032 74.2838 12.256 74.0038 12.544C73.7318 12.824 73.5158 13.16 73.3558 13.552C73.1958 13.936 73.1158 14.352 73.1158 14.8C73.1158 15.248 73.1958 15.668 73.3558 16.06C73.5158 16.444 73.7318 16.776 74.0038 17.056C74.2838 17.336 74.6118 17.56 74.9878 17.728C75.3638 17.888 75.7678 17.968 76.1998 17.968C76.6318 17.968 77.0358 17.888 77.4118 17.728C77.7958 17.56 78.1238 17.336 78.3958 17.056C78.6758 16.776 78.8958 16.444 79.0558 16.06C79.2158 15.668 79.2958 15.248 79.2958 14.8ZM90.1136 14.908C90.1136 15.508 90.0056 16.068 89.7896 16.588C89.5816 17.1 89.2936 17.544 88.9256 17.92C88.5576 18.296 88.1176 18.592 87.6056 18.808C87.1016 19.024 86.5576 19.132 85.9736 19.132C85.3656 19.132 84.7936 19.02 84.2576 18.796C83.7216 18.572 83.2576 18.268 82.8656 17.884C82.4736 17.492 82.1616 17.032 81.9296 16.504C81.7056 15.968 81.5936 15.4 81.5936 14.8C81.5936 14.2 81.7056 13.636 81.9296 13.108C82.1616 12.572 82.4696 12.112 82.8536 11.728C83.2456 11.336 83.7096 11.028 84.2456 10.804C84.7816 10.58 85.3536 10.468 85.9616 10.468C86.6256 10.468 87.2536 10.596 87.8456 10.852C88.4376 11.108 88.9376 11.464 89.3456 11.92L88.4816 12.76C88.1696 12.4 87.7896 12.124 87.3416 11.932C86.9016 11.732 86.4416 11.632 85.9616 11.632C85.5296 11.632 85.1216 11.712 84.7376 11.872C84.3616 12.032 84.0336 12.256 83.7536 12.544C83.4816 12.824 83.2656 13.16 83.1056 13.552C82.9536 13.936 82.8776 14.352 82.8776 14.8C82.8776 15.248 82.9576 15.668 83.1176 16.06C83.2776 16.444 83.4936 16.78 83.7656 17.068C84.0456 17.348 84.3736 17.572 84.7496 17.74C85.1336 17.9 85.5456 17.98 85.9856 17.98C86.7296 17.98 87.3616 17.756 87.8816 17.308C88.4096 16.852 88.7136 16.276 88.7936 15.58H85.9976V14.476H90.1136V14.908ZM93.1454 19V15.688L89.7614 10.6H91.2254L93.8054 14.56L96.3974 10.6H97.7894L94.4054 15.676V19H93.1454Z" fill="#0C1430"/>
</g>
<defs>
<filter id="filter0_d_404_504" x="0" y="0" width="112" height="32" filterUnits="userSpaceOnUse" color-interpolation-filters="sRGB">
<feFlood flood-opacity="0" result="BackgroundImageFix"/>
<feColorMatrix in="SourceAlpha" type="matrix" values="0 0 0 0 0 0 0 0 0 0 0 0 0 0 0 0 0 0 127 0" result="hardAlpha"/>
<feOffset dy="1"/>
<feGaussianBlur stdDeviation="1"/>
<feColorMatrix type="matrix" values="0 0 0 0 0.411765 0 0 0 0 0.317647 0 0 0 0 1 0 0 0 0.05 0"/>
<feBlend mode="normal" in2="BackgroundImageFix" result="effect1_dropShadow_404_504"/>
<feBlend mode="normal" in="SourceGraphic" in2="effect1_dropShadow_404_504" result="shape"/>
</filter>
</defs>
</svg>
